<svg xmlns="http://www.w3.org/2000/svg" viewBox="0 0 71.98 71.55"><title>Asset 1</title><g id="Layer_2" data-name="Layer 2"><g id="Isolation_Mode" data-name="Isolation Mode"><path d="M33.23,35.93C31.14,34,28.77,32.32,27,30.13a35.13,35.13,0,0,1-6.87-15C19.06,9.91,20.75,5.94,25.2,3c7-4.56,17.12-3.9,22.76,1.61a13.15,13.15,0,0,1,2.81,4.14c1.4,3.27.89,3.86-1.9,6a79.88,79.88,0,0,0-9.43,8.38c-3.12,3.32-5.25,7.31-5.27,12.14C34.16,36.51,34.72,37.64,33.23,35.93Z"/><path d="M36,34.41c1.26-2.55,2.23-5.3,3.84-7.59a35.22,35.22,0,0,1,12.5-10.77c4.72-2.5,9-2,13,1.49C71.69,23,73.88,32.9,70.16,39.85A13.16,13.16,0,0,1,67,43.69c-2.75,2.27-3.46,1.94-6.3-.14A80.83,80.83,0,0,0,50,36.82a17.59,17.59,0,0,0-13.13-1.68C35.85,35.94,35.29,36.51,36,34.41Z"/><path d="M38.76,37.22c2.81.39,5.73.43,8.41,1.23a35,35,0,0,1,14.19,8.42c3.87,3.68,4.73,7.91,2.74,12.84C61,67.42,52.24,72.66,44.47,71.34a13.21,13.21,0,0,1-4.67-1.81c-3-1.89-2.93-2.66-1.86-6a79.67,79.67,0,0,0,3-12.26,17.61,17.61,0,0,0-2.58-13C37.55,37.64,36.42,37.07,38.76,37.22Z"/><path d="M37.61,40.07c.49,2.79,1.33,5.58,1.39,8.39a35.09,35.09,0,0,1-3.72,16.06c-2.34,4.81-6.1,6.92-11.4,6.51-8.3-.64-15.95-7.36-17-15.18a13.14,13.14,0,0,1,.31-5c.88-3.45,1.65-3.6,5.17-3.6a80.26,80.26,0,0,0,12.59-.88A17.61,17.61,0,0,0,36.49,40C37,39.34,37.55,38.77,37.61,40.07Z"/><path d="M34.26,39.66c-2.5,1.35-4.88,3-7.52,4a35.12,35.12,0,0,1-16.41,1.58c-5.3-.69-8.5-3.59-9.8-8.74-2-8.07,1.92-17.46,9-21a13.33,13.33,0,0,1,4.84-1.29c3.55-.26,3.93.42,5.06,3.76a80.2,80.2,0,0,0,4.83,11.66c2.12,4,5.2,7.35,9.75,9C35.29,38.77,35.85,38.77,34.26,39.66Z"/></g></g></svg>